<?xml version="1.0" encoding="utf-8"?>
<!-- Generator: Adobe Illustrator 24.0.2, SVG Export Plug-In . SVG Version: 6.00 Build 0)  -->
<svg version="1.1" id="Layer_1" xmlns="http://www.w3.org/2000/svg" xmlns:xlink="http://www.w3.org/1999/xlink" x="0px" y="0px"
	 viewBox="0 0 100 100" style="enable-background:new 0 0 100 100;" xml:space="preserve">
<style type="text/css">
	.st0{fill:#FFFFFF;}
</style>
<g>
	<path class="st0" d="M0.5,61.5c0.1-1.5,0.2-2.9,0.4-4.4c0.6-5.5,1.9-10.8,4.8-15.7c3-4.9,7.1-8.5,12.1-11.2
		c6-3.2,12.5-4.9,19.2-5.8c7.8-1.1,15.6-0.9,23.5-0.9c1.4,0,2.8,0,4.3,0c0-0.4,0-0.7,0-1.1c0-4.3,0-8.7,0-12.9c0-2.5,2-4.2,4.4-3.6
		c0.6,0.1,1.4,0.5,1.9,1c9.5,9.4,19,18.9,28.4,28.4c1.7,1.7,1.6,3.6-0.2,5.5c-8.3,8.3-16.7,16.7-25,25c-0.9,0.9-2,1.9-2.9,2.9
		c-1.1,1.1-2.5,1.7-4.1,1s-2.3-2-2.3-3.6c0-4.3,0-8.5,0-12.8c0-0.3,0-0.7,0-1.1c-0.3,0-0.5-0.1-0.7,0c-7.1,0.1-14.3,0.1-21.4,0.4
		c-5,0.2-9.9,1-14.6,2.8c-7.8,3.1-12.6,8.9-14.5,17.1c-1,4.7-1.4,9.5-1,14.4c0.1,1.9,0.3,3.9,0.4,5.7c0.1,1.1-0.3,2-1.1,2.3
		c-0.9,0.3-1.9,0-2.4-1.1c-1.6-3.2-3-6.6-4.4-9.9c-1.8-4.6-3.2-9.2-4.1-14c-0.2-1-0.3-2.1-0.5-3.1C0.5,64.8,0.5,63.1,0.5,61.5z"/>
</g>
</svg>
