<?xml version="1.0" encoding="utf-8"?>
<!-- Generator: Adobe Illustrator 21.0.0, SVG Export Plug-In . SVG Version: 6.00 Build 0)  -->
<svg version="1.1" id="Layer_1" xmlns="http://www.w3.org/2000/svg" xmlns:xlink="http://www.w3.org/1999/xlink" x="0px" y="0px"
	 viewBox="0 0 100 100" style="enable-background:new 0 0 100 100;" xml:space="preserve">
<style type="text/css">
	.st0{fill:#ffffff;}
</style>
<path class="st0" d="M30,50c9.7,0,17.5-7.8,17.5-17.5S39.7,15,30,15s-17.5,7.8-17.5,17.5S20.3,50,30,50z M42,55h-1.3
	c-3.3,1.6-6.9,2.5-10.7,2.5s-7.4-0.9-10.7-2.5H18C8.1,55,0,63.1,0,73v4.5C0,81.6,3.4,85,7.5,85h45c4.1,0,7.5-3.4,7.5-7.5V73
	C60,63.1,51.9,55,42,55z M75,50c8.3,0,15-6.7,15-15s-6.7-15-15-15s-15,6.7-15,15S66.7,50,75,50z M82.5,55h-0.6
	c-2.2,0.8-4.5,1.3-6.9,1.3s-4.7-0.5-6.9-1.3h-0.6c-3.2,0-6.1,0.9-8.7,2.4C62.6,61.5,65,67,65,73v6c0,0.3-0.1,0.7-0.1,1h27.6
	c4.1,0,7.5-3.4,7.5-7.5C100,62.8,92.2,55,82.5,55z"/>
</svg>
