<?xml version="1.0" encoding="utf-8"?>
<!-- Generator: Adobe Illustrator 24.0.2, SVG Export Plug-In . SVG Version: 6.00 Build 0)  -->
<svg version="1.1" id="Layer_1" xmlns="http://www.w3.org/2000/svg" xmlns:xlink="http://www.w3.org/1999/xlink" x="0px" y="0px"
	 viewBox="0 0 100 100" style="enable-background:new 0 0 100 100;" xml:space="preserve">
<style type="text/css">
	.st0{fill:#4C5E70;}
</style>
<polygon class="st0" points="69.6,78.5 53,100.1 36.4,78.5 45,78.5 45,24.5 61.1,24.5 61.1,60.4 61.1,60.4 61.1,78.5 "/>
<path class="st0" d="M62,66.2V43.9c0.4,6.8,6.1,12.3,13,12.3h5.7V48L100,62.9L80.6,77.7v-8.1h-5.7C70.3,69.6,65.8,68.4,62,66.2z"/>
<path class="st0" d="M45.2,57.4V30.9C44.7,39,38,45.5,29.7,45.5H23v-9.6L0,53.5l23,17.7v-9.6h6.7C35.3,61.6,40.6,60,45.2,57.4z"/>
<circle class="st0" cx="52.7" cy="12" r="10.2"/>
</svg>
