<?xml version="1.0" encoding="utf-8"?>
<!-- Generator: Adobe Illustrator 24.0.2, SVG Export Plug-In . SVG Version: 6.00 Build 0)  -->
<svg version="1.1" id="Layer_1" xmlns="http://www.w3.org/2000/svg" xmlns:xlink="http://www.w3.org/1999/xlink" x="0px" y="0px"
	 viewBox="0 0 100 100" style="enable-background:new 0 0 100 100;" xml:space="preserve">
<style type="text/css">
	.st0{fill:#4C5E70;}
	.st1{fill:none;stroke:#4C5E70;stroke-width:4;stroke-miterlimit:10;}
</style>
<path class="st0" d="M58.7,36.1h-20c-1.7,0-3.2-1.4-3.2-3.2V16.5c0-1.7,1.4-3.2,3.2-3.2h20.1c1.7,0,3.2,1.4,3.2,3.2V33
	C61.9,34.7,60.5,36.1,58.7,36.1z"/>
<path class="st0" d="M25.6,91.4h-20c-1.7,0-3.2-1.4-3.2-3.2V71.8c0-1.7,1.4-3.2,3.2-3.2h20.1c1.7,0,3.2,1.4,3.2,3.2v16.5
	C28.8,90,27.4,91.4,25.6,91.4z"/>
<path class="st0" d="M58.8,90.9h-20c-1.7,0-3.2-1.4-3.2-3.2V71.3c0-1.7,1.4-3.2,3.2-3.2h20.1c1.7,0,3.2,1.4,3.2,3.2v16.5
	C62,89.5,60.6,90.9,58.8,90.9z"/>
<path class="st0" d="M95,91.5H74.9c-1.7,0-3.2-1.4-3.2-3.2V71.9c0-1.7,1.4-3.2,3.2-3.2H95c1.7,0,3.2,1.4,3.2,3.2v16.5
	C98.2,90.1,96.7,91.5,95,91.5z"/>
<rect x="46.3" y="32.8" class="st0" width="5.2" height="48.9"/>
<path class="st1" d="M17.1,75.8c8.5,0.1,17,0.2,25.5,0.2c9,0,17.9,0.2,26.9,0c5.3-0.1,10.4-0.4,15.6,0V55c0-3.5-2.8-6.4-6.4-6.4h-59
	c-3.5,0-6.4,2.8-6.4,6.4v20.6C14.7,75.8,15.9,75.8,17.1,75.8z"/>
</svg>
