<?xml version="1.0" encoding="utf-8"?>
<!-- Generator: Adobe Illustrator 21.0.0, SVG Export Plug-In . SVG Version: 6.00 Build 0)  -->
<svg version="1.1" id="Layer_1" xmlns="http://www.w3.org/2000/svg" xmlns:xlink="http://www.w3.org/1999/xlink" x="0px" y="0px"
	 viewBox="0 0 100 100" style="enable-background:new 0 0 100 100;" xml:space="preserve">
<style type="text/css">
	.st0{fill:#ec1a57;}
</style>
<g>
	<path class="st0" d="M57.2,80.4c3.1-8.8,6.1-17.6,9.3-26.8c2.3,0.8,4.5,1.4,6.5,2.4c6.1,2.9,12.2,5.9,17.5,10.2
		c0.8,0.6,1.5,1.2,2.2,1.9c3,2.7,4.4,6.1,4.4,10.1c0,2-0.1,4-0.1,6c0,1.6-0.7,2.7-2,3.5c-4.5,3-9.5,5.2-14.7,6.6
		c-7.3,2.1-14.6,3.3-22.2,3.9C44.9,99.5,32,98,19.2,94.4c-5.1-1.5-9.9-3.6-14.4-6.6C3.7,87,3,85.9,3,84.5c0-2.5-0.1-5,0-7.5
		c0.2-4.4,2.7-7.6,6-10.2c6.4-5.1,13.5-8.9,21.1-11.9c1.1-0.4,2.3-0.6,3.5-1c3.1,8.9,6.2,17.8,9.3,26.6c0.1,0,0.2,0,0.3,0
		c0.4-2.3,0.9-4.5,1.3-6.8c0.4-2.3,0.8-4.6,1.2-6.9c0.1-0.6,0-1.4-0.4-1.8c-2-2.2-2.1-4.5-0.8-7.2c1-2,0.8-2.1,3-2.1
		c2,0,4.1,0,6.1,0c1,0,1.7,0.3,1.9,1.4c0.3,1.3,0.9,2.5,1.3,3.8c0.1,0.4,0,0.9-0.1,1.4c-0.1,0.3-0.3,0.6-0.5,0.8
		c-1.5,1.7-1.8,3.5-1.3,5.7c0.9,3.8,1.5,7.7,2.2,11.6C57,80.4,57.1,80.4,57.2,80.4z"/>
</g>
<circle class="st0" cx="48.9" cy="26" r="24.7"/>
</svg>
