<?xml version="1.0" encoding="utf-8"?>
<!-- Generator: Adobe Illustrator 24.0.2, SVG Export Plug-In . SVG Version: 6.00 Build 0)  -->
<svg version="1.1" id="Layer_1" xmlns="http://www.w3.org/2000/svg" xmlns:xlink="http://www.w3.org/1999/xlink" x="0px" y="0px"
	 viewBox="0 0 100 100" style="enable-background:new 0 0 100 100;" xml:space="preserve">
<style type="text/css">
	.st0{fill:#EC1A57;}
</style>
<path class="st0" d="M77.1,27.1c-12.7,0-22.9,10.2-22.9,22.8c0,5.6,1.8,10.6,5.2,14.5H40.6c3.3-3.9,5.2-8.9,5.2-14.5
	c0-12.7-10.2-22.8-22.9-22.8S0,37.3,0,50s10.2,22.9,22.9,22.9h54.1C89.8,72.8,100,62.7,100,50S89.8,27.1,77.1,27.1z M22.9,64.5
	C14.8,64.5,8.3,58,8.3,50s6.5-14.5,14.6-14.5S37.6,42,37.6,50S31.1,64.5,22.9,64.5z M77.1,64.5c-8.2,0-14.6-6.5-14.6-14.5
	s6.5-14.5,14.6-14.5S91.7,42,91.7,50S85.2,64.5,77.1,64.5z"/>
</svg>
