<?xml version="1.0" encoding="utf-8"?>
<!-- Generator: Adobe Illustrator 24.0.2, SVG Export Plug-In . SVG Version: 6.00 Build 0)  -->
<svg version="1.1" id="Layer_1" xmlns="http://www.w3.org/2000/svg" xmlns:xlink="http://www.w3.org/1999/xlink" x="0px" y="0px"
	 viewBox="0 0 100 100" style="enable-background:new 0 0 100 100;" xml:space="preserve">
<style type="text/css">
	.st0{fill:#FE993F;}
</style>
<path class="st0" d="M88.2,55c0.2-1.6,0.4-3.3,0.4-5c0-1.7-0.2-3.4-0.4-5L99,36.5c1-0.8,1.3-2.2,0.6-3.3L89.4,15.4
	c-0.6-1.1-2-1.6-3.1-1.1l-12.8,5.2c-2.6-2-5.6-3.8-8.7-5.1L62.8,0.8c-0.2-1.2-1.3-2.2-2.6-2.2H39.7c-1.3,0-2.3,1-2.5,2.2l-1.9,13.6
	c-3.1,1.3-6,3-8.7,5.1l-12.8-5.2c-1.2-0.4-2.5,0-3.1,1.1L0.3,33.2C-0.3,34.3,0,35.7,1,36.5L11.8,45c-0.2,1.6-0.4,3.3-0.4,5
	c0,1.7,0.2,3.4,0.4,5L1,63.5c-1,0.8-1.3,2.2-0.6,3.3l10.3,17.8c0.6,1.1,2,1.6,3.1,1.1l12.8-5.2c2.6,2,5.6,3.8,8.7,5.1l1.9,13.6
	c0.2,1.2,1.3,2.2,2.5,2.2h20.6c1.3,0,2.3-1,2.5-2.2l1.9-13.6c3.1-1.3,6-3,8.7-5.1l12.8,5.2c1.2,0.4,2.5,0,3.1-1.1l10.3-17.8
	c0.6-1.1,0.4-2.5-0.6-3.3L88.2,55z M50,68c-9.9,0-18-8-18-18s8-18,18-18s18,8,18,18S59.9,68,50,68z"/>
</svg>
