<?xml version="1.0" encoding="utf-8"?>
<!-- Generator: Adobe Illustrator 21.0.0, SVG Export Plug-In . SVG Version: 6.00 Build 0)  -->
<svg version="1.1" id="Layer_1" xmlns="http://www.w3.org/2000/svg" xmlns:xlink="http://www.w3.org/1999/xlink" x="0px" y="0px"
	 viewBox="0 0 100 100" style="enable-background:new 0 0 100 100;" xml:space="preserve">
<style type="text/css">
	.st0{fill:#AAB2B6;}
</style>
<path class="st0" d="M15,45c5.5,0,10-4.5,10-10s-4.5-10-10-10S5,29.5,5,35S9.5,45,15,45z M85,45c5.5,0,10-4.5,10-10s-4.5-10-10-10
	s-10,4.5-10,10S79.5,45,85,45z M90,50H80c-2.8,0-5.2,1.1-7,2.9c6.3,3.5,10.8,9.7,11.7,17.1H95c2.8,0,5-2.2,5-5v-5
	C100,54.5,95.5,50,90,50z M50,50c9.7,0,17.5-7.8,17.5-17.5S59.7,15,50,15s-17.5,7.8-17.5,17.5S40.3,50,50,50z M62,55h-1.3
	c-3.3,1.6-6.9,2.5-10.7,2.5s-7.4-0.9-10.7-2.5H38c-9.9,0-18,8.1-18,18v4.5c0,4.1,3.4,7.5,7.5,7.5h45c4.1,0,7.5-3.4,7.5-7.5V73
	C80,63.1,71.9,55,62,55z M27,52.9c-1.8-1.8-4.3-2.9-7-2.9H10C4.5,50,0,54.5,0,60v5c0,2.8,2.2,5,5,5h10.3
	C16.3,62.6,20.8,56.4,27,52.9z"/>
</svg>
