<?xml version="1.0" encoding="utf-8"?>
<!-- Generator: Adobe Illustrator 24.0.2, SVG Export Plug-In . SVG Version: 6.00 Build 0)  -->
<svg version="1.1" id="Layer_1" xmlns="http://www.w3.org/2000/svg" xmlns:xlink="http://www.w3.org/1999/xlink" x="0px" y="0px"
	 viewBox="0 0 100 100" style="enable-background:new 0 0 100 100;" xml:space="preserve">
<style type="text/css">
	.st0{fill:#AAB2B6;}
</style>
<path class="st0" d="M85,54.7c0.2-1.6,0.3-3.1,0.3-4.7c0-1.6-0.1-3.2-0.3-4.7l10.3-8c0.9-0.7,1.2-2,0.6-3.1l-9.7-16.8
	c-0.6-1-1.9-1.5-3-1l-12.1,4.9c-2.5-1.9-5.2-3.5-8.2-4.8L61.1,3.6c-0.2-1.1-1.2-2-2.4-2H39.3c-1.2,0-2.2,0.9-2.4,2L35,16.4
	c-3,1.2-5.7,2.8-8.2,4.8l-12.1-4.9c-1.1-0.4-2.4,0-3,1L2.1,34.2c-0.6,1-0.3,2.4,0.6,3.1l10.2,8c-0.2,1.6-0.3,3.1-0.3,4.7
	c0,1.6,0.1,3.2,0.3,4.7l-10.2,8c-0.9,0.7-1.2,2-0.6,3.1l9.7,16.8c0.6,1,1.9,1.5,3,1l12.1-4.9c2.5,1.9,5.2,3.5,8.2,4.8l1.8,12.8
	c0.2,1.1,1.2,2,2.4,2h19.4c1.2,0,2.2-0.9,2.4-2l1.8-12.8c3-1.2,5.7-2.8,8.2-4.8l12.1,4.9c1.1,0.4,2.4,0,3-1l9.7-16.8
	c0.6-1,0.3-2.4-0.6-3.1L85,54.7z M49,67c-9.4,0-17-7.6-17-17s7.6-17,17-17s17,7.6,17,17S58.3,67,49,67z"/>
</svg>
