<?xml version="1.0" encoding="utf-8"?>
<!-- Generator: Adobe Illustrator 21.0.0, SVG Export Plug-In . SVG Version: 6.00 Build 0)  -->
<svg version="1.1" id="Layer_1" xmlns="http://www.w3.org/2000/svg" xmlns:xlink="http://www.w3.org/1999/xlink" x="0px" y="0px"
	 viewBox="0 0 100 100" style="enable-background:new 0 0 100 100;" xml:space="preserve">
	 <style type="text/css">
	.st0{fill:#ec1a57;}
</style>
<g>

	<path class="st0" d="M97.9,92.7c0,0.5,0,1,0,1.5c-1.2,2-1.9,2.3-4.2,1.8c-4.5-0.9-9-1.8-13.5-2.7c-0.8-0.2-1.5-0.1-2.2,0.2
		c-6,2.6-12.2,3.3-18.7,2.2C41.1,92.5,29.1,74.6,33,56.6c3.7-16.9,19.5-27.9,36.7-25.6c13.7,1.9,24.9,12.5,27.5,26.1
		c0.3,1.7,0.5,3.4,0.7,5.2c0,0.7,0,1.5,0,2.2c-0.1,0.3-0.1,0.7-0.2,1c-0.3,3.9-1.2,7.6-2.6,11.1c-0.2,0.5-0.2,1.2-0.1,1.8
		c0.4,2.4,0.9,4.8,1.4,7.2C96.9,88.1,97.4,90.4,97.9,92.7z"/>
	<path class="st0" d="M64.4,25c-23,0.3-41.8,21.8-36.9,46.4c-1.3-0.4-2.6-0.6-3.7-1.2c-2-1-3.9-1-6-0.5c-4,0.9-8.1,1.6-12.2,2.4
		c-2.2,0.4-3.9-1.2-3.4-3.5C3.1,64,4.1,59.2,5,54.5c0.1-0.6,0-1.3-0.2-1.9c-7.4-17,0.8-36.8,18.1-43.6C38.4,3,55.7,9.2,63.7,23.8
		C64,24.2,64.1,24.6,64.4,25z"/>
</g>
</svg>
