<?xml version="1.0" encoding="utf-8"?>
<!-- Generator: Adobe Illustrator 24.0.2, SVG Export Plug-In . SVG Version: 6.00 Build 0)  -->
<svg version="1.1" id="Layer_1" xmlns="http://www.w3.org/2000/svg" xmlns:xlink="http://www.w3.org/1999/xlink" x="0px" y="0px"
	 viewBox="0 0 100 100" style="enable-background:new 0 0 100 100;" xml:space="preserve">
<style type="text/css">
	.st0{fill:#EC1A57;}
</style>
<polygon class="st0" points="68.9,77.8 52.9,98.6 36.9,77.8 45.2,77.8 45.2,25.5 60.7,25.5 60.7,60.2 60.7,60.2 60.7,77.8 "/>
<path class="st0" d="M61.6,65.8V44.2c0.4,6.6,5.9,11.9,12.6,11.9h5.5v-7.9l18.6,14.4L79.6,77v-7.8h-5.5C69.6,69.2,65.3,68,61.6,65.8
	z"/>
<path class="st0" d="M45.4,57.3V31.8c-0.5,7.8-7,14.1-15,14.1h-6.5v-9.3l-22.2,17l22.2,17.1v-9.3h6.5C35.8,61.3,40.9,59.8,45.4,57.3
	z"/>
<circle class="st0" cx="52.6" cy="13.4" r="9.9"/>
</svg>
