<?xml version="1.0" encoding="utf-8"?>
<!-- Generator: Adobe Illustrator 21.0.0, SVG Export Plug-In . SVG Version: 6.00 Build 0)  -->
<svg version="1.1" id="Layer_1" xmlns="http://www.w3.org/2000/svg" xmlns:xlink="http://www.w3.org/1999/xlink" x="0px" y="0px"
	 viewBox="0 0 100 100" style="enable-background:new 0 0 100 100;" xml:space="preserve">
<style type="text/css">
	.st0{fill:#ec1a57;}
</style>
<g>
	<path class="st0" d="M11.5,93c25,0,50.1,0,75.1,0c0,2.2,0,4.3,0,6.5c-22.4,0-44.7,0-67.1,0c-2.7,0-5.4,0-8,0
		C11.5,97.4,11.5,95.2,11.5,93z"/>
	<path class="st0" d="M49.7,85.3c-5.5-4.2-11.6-7.8-16.4-12.7c-12-12.5-10.7-29.4,2.5-40.7c0.6-0.5,1.2-1.1,1.9-1.5
		c9.1-6.1,15.3-13.3,8.2-26c1.1-0.2,2.2-0.5,3.3-0.7c6.2,5.4,13.4,10,18.3,16.4c9.4,12.3,7,26.7-4.8,36.9c-1.6,1.4-3.3,2.9-5.1,4
		c-8.8,5.8-10.7,13.7-5.6,23.8C51.2,84.9,50.5,85.1,49.7,85.3z"/>
</g>
</svg>
