<?xml version="1.0" encoding="utf-8"?>
<!-- Generator: Adobe Illustrator 24.0.2, SVG Export Plug-In . SVG Version: 6.00 Build 0)  -->
<svg version="1.1" id="Layer_1" xmlns="http://www.w3.org/2000/svg" xmlns:xlink="http://www.w3.org/1999/xlink" x="0px" y="0px"
	 viewBox="0 0 100 100" style="enable-background:new 0 0 100 100;" xml:space="preserve">
<style type="text/css">
	.st0{fill:none;}
	.st1{fill:#EC1A57;}
</style>
<path class="st0" d="M0,0h48v48H0V0z"/>
<path class="st1" d="M84,55.2c0.2-1.5,0.3-3,0.3-4.6c0-1.6-0.1-3.1-0.3-4.6l10-7.8c0.9-0.7,1.2-2,0.6-3l-9.4-16.4
	c-0.6-1-1.8-1.4-2.9-1l-11.8,4.7c-2.4-1.9-5.1-3.4-8-4.6L60.8,5.4c-0.2-1.1-1.2-2-2.4-2H39.6c-1.2,0-2.1,0.9-2.3,2l-1.8,12.5
	c-2.9,1.2-5.5,2.8-8,4.6l-11.8-4.7c-1.1-0.4-2.3,0-2.9,1L3.4,35.1c-0.6,1-0.3,2.3,0.6,3l10,7.8c-0.2,1.5-0.3,3-0.3,4.6
	c0,1.6,0.1,3.1,0.3,4.6L4,63c-0.9,0.7-1.2,2-0.6,3l9.4,16.4c0.6,1,1.8,1.4,2.9,1l11.8-4.7c2.4,1.9,5.1,3.4,8,4.6l1.8,12.5
	c0.2,1.1,1.2,2,2.3,2h18.9c1.2,0,2.1-0.9,2.3-2l1.8-12.5c2.9-1.2,5.5-2.8,8-4.6l11.8,4.7c1.1,0.4,2.3,0,2.9-1L94.6,66
	c0.6-1,0.3-2.3-0.6-3L84,55.2z M49,67.1c-9.1,0-16.5-7.4-16.5-16.5S39.9,34,49,34s16.5,7.4,16.5,16.5S58.1,67.1,49,67.1z"/>
</svg>
