<?xml version="1.0" encoding="utf-8"?>
<!-- Generator: Adobe Illustrator 24.0.2, SVG Export Plug-In . SVG Version: 6.00 Build 0)  -->
<svg version="1.1" id="Layer_1" xmlns="http://www.w3.org/2000/svg" xmlns:xlink="http://www.w3.org/1999/xlink" x="0px" y="0px"
	 viewBox="0 0 100 100" style="enable-background:new 0 0 100 100;" xml:space="preserve">
<style type="text/css">
	.st0{fill:#EC1A57;}
</style>
<g>
	<path class="st0" d="M99.4,65.7c-0.5,2.1-0.8,4.3-1.6,6.3c-3.3,9.1-12.2,15.8-21.9,15.6c-6.2-0.1-12.4,0-18.6,0c-0.4,0-0.8,0-1.2,0
		c0-7.2,0-14.4,0-21.7c1.9,0,3.8,0,5.7,0c1.3,0,2.6,0.2,3.3-1.2c0.7-1.4-0.2-2.3-0.9-3.3c-4.2-5.8-8.4-11.7-12.6-17.5
		c-1.4-2-2.9-2-4.3,0c-4.3,6-8.7,12-13,18c-0.2,0.2-0.3,0.5-0.5,0.7c-0.9,1.6,0,3.3,1.8,3.4c2,0.1,4,0,6,0c0.3,0,0.7,0,1.1,0
		c0,7.2,0,14.4,0,21.7c-0.4,0-0.8,0-1.1,0c-7.1,0-14.2,0-21.3,0c-7.1,0-12.5-3.1-16.5-8.6c-3.4-4.6-4.9-9.9-4.1-15.7
		S3.2,53,7.9,49.6c0.3-0.2,0.5-0.4,0.8-0.5c0.5-0.3,0.7-0.6,0.5-1.3C6.5,38.4,13.7,29.4,23.5,30c1.2,0.1,2.4,0.4,3.7,0.6
		c0.8-1.3,1.6-2.8,2.6-4.2c6.8-8.9,15.7-12.8,26.8-11.2C68.3,17,77.4,25.9,79.5,37.5c0.3,1.9,1,2.5,2.8,3.1
		c9.8,3.1,15.2,10.1,16.9,20.1c0.1,0.3,0.1,0.6,0.2,0.9C99.4,63,99.4,64.4,99.4,65.7z"/>
</g>
</svg>
