<?xml version="1.0" encoding="utf-8"?>
<!-- Generator: Adobe Illustrator 21.0.0, SVG Export Plug-In . SVG Version: 6.00 Build 0)  -->
<svg version="1.1" id="Layer_1" xmlns="http://www.w3.org/2000/svg" xmlns:xlink="http://www.w3.org/1999/xlink" x="0px" y="0px"
	 viewBox="0 0 100 100" style="enable-background:new 0 0 100 100;" xml:space="preserve">
<style type="text/css">
	.st0{fill:#2dc1e9;}
</style>
<polygon class="st0" points="68,77.6 52,98.4 36,77.6 44.3,77.6 44.3,25.4 59.8,25.4 59.8,60.1 59.8,60.1 59.8,77.6 "/>
<path class="st0" d="M60.7,65.7V44.1C61.1,50.7,66.6,56,73.3,56h5.5v-7.9l18.6,14.4L78.7,76.8V69h-5.5C68.7,69,64.4,67.8,60.7,65.7z
	"/>
<path class="st0" d="M44.5,57.2V31.6c-0.5,7.8-7,14.1-15,14.1H23v-9.3L0.8,53.4L23,70.5v-9.3h6.5C34.9,61.2,40,59.7,44.5,57.2z"/>
<circle class="st0" cx="51.7" cy="13.3" r="9.9"/>
</svg>
