<?xml version="1.0" encoding="utf-8"?>
<!-- Generator: Adobe Illustrator 21.0.0, SVG Export Plug-In . SVG Version: 6.00 Build 0)  -->
<svg version="1.1" id="Layer_1" xmlns="http://www.w3.org/2000/svg" xmlns:xlink="http://www.w3.org/1999/xlink" x="0px" y="0px"
	 viewBox="0 0 100 100" style="enable-background:new 0 0 100 100;" xml:space="preserve">
<style type="text/css">
	.st0{fill:#2dc1e9;}
</style>
<g>
	<path class="st0" d="M46.7-0.1c0.9,0.3,1.8,0.4,2.6,0.8c2.8,1.3,4.5,3.5,5,6.6c0.2,1.1,0.2,1.1,1.3,1.1c1.7,0,3.4,0,5.1,0.1
		c0.3,0,0.6,0.2,0.8,0.3c0.9,0.7,1.2,1.7,1.3,2.8c0,0.3,0,0.6,0,0.9c0.2,0,0.4,0,0.6,0c2,0,4,0,6,0c3.4,0.1,5.8,1.8,7.3,4.8
		c0.6,1.2,0.6,2.6,0.6,3.9c0.1,3.5,0.1,7,0.1,10.5c0,9.5,0,19.1,0,28.6c0,0.2,0,0.4,0,0.5c-1.8-0.3-3.6-0.5-5.5-0.8
		c0-0.2,0-0.4,0-0.6c0-11.8,0-23.6,0-35.3c0-1.3-0.1-2.7-0.2-4c-0.1-1.3-0.6-1.8-1.9-2C69.1,18,68.3,18,67.5,18c-1.5,0-3.1,0-4.6,0
		c-0.1,0.8-0.1,1.6-0.3,2.4c-0.2,1.2-0.7,1.8-2,1.9c-1.9,0.1-3.8,0.2-5.7,0.2c-7.6,0-15.3,0-22.9-0.1c-0.4,0-0.7,0-1.1-0.1
		c-1.2-0.1-1.9-0.8-2-2c0-0.4-0.1-0.8-0.1-1.2c0-0.4,0-0.7,0-1.1c-0.2,0-0.4,0-0.5,0c-2.2,0-4.4,0-6.6,0c-0.3,0-0.6,0.1-0.8,0.3
		c-0.9,0.7-1.3,1.5-1.3,2.6c0,6.1-0.1,12.2-0.1,18.3c0,12.7,0,25.5,0.1,38.2c0,2,0.1,3.9,0.2,5.9c0.1,1.3,0.9,2.1,2.2,2.2
		c2.2,0.1,4.3,0.2,6.5,0.2c7.7,0,15.4,0,23.1,0c0.5,0,0.7,0.1,0.8,0.6c0.5,1.3,1,2.6,1.6,3.9c0.1,0.3,0.2,0.5,0.4,0.9
		c-0.2,0-0.4,0-0.5,0c-9.8,0-19.6,0-29.4,0c-1.4,0-2.9-0.1-4.3-0.3c-2.4-0.5-3.9-2.1-5.1-4.1c-0.3-0.5-0.5-1-0.8-1.5
		c0-22.3,0-44.5,0-66.8c0.2-0.4,0.4-0.9,0.6-1.3c0.4-0.7,0.8-1.4,1.4-2c0.9-1.1,2.2-1.8,3.5-2.4c0.2-0.1,0.5-0.2,0.8-0.2
		c2.6,0,5.1-0.1,7.7-0.1c0.2,0,0.4,0,0.6,0c0-0.6,0-1.2,0.1-1.8c0.1-1.2,0.8-2,2-2.1c1.9-0.1,3.7-0.1,5.6-0.2c0.5,0,0.7-0.1,0.7-0.6
		c0.2-4.1,3.5-7,6.4-7.7C44.1,0,44.5,0,44.9-0.1C45.5-0.1,46.1-0.1,46.7-0.1z M45.7,12.5c2.3,0,4-1.8,4.1-4.1c0-2.2-1.8-3.9-4-3.9
		c-2.2,0-4,1.8-4,3.9C41.7,10.6,43.6,12.5,45.7,12.5z"/>
	<path class="st0" d="M70.6,99.4c-1-0.2-1.9-0.3-2.9-0.5c-7.4-1.7-13.3-8-14.3-15.4c-1.3-9.8,4-16.9,10.8-19.9
		c5.5-2.5,11-2.3,16.4,0.4c4.3,2.1,7.1,5.6,9,9.9c0.6,1.4,1,3,1,4.5c0,0.2,0.1,0.3,0.1,0.5c0,1.1,0,2.2,0,3.4c0,0.1-0.1,0.3-0.1,0.4
		c0,2.1-0.7,4.1-1.6,6c-2.6,5.2-6.7,8.7-12.4,10.2c-1.1,0.3-2.2,0.4-3.3,0.6C72.4,99.4,71.5,99.4,70.6,99.4z M72,94.8
		C79.6,95,86,88.4,86.2,81c0.2-7.8-6.3-14.6-14.1-14.7c-7.6-0.1-14.3,6.3-14.4,13.9C57.7,88.3,63.9,94.7,72,94.8z"/>
	<path class="st0" d="M53,35.5c-3.2-0.1-6.6-0.2-9.9-0.3c-1,0-1.8-0.7-2-1.5c-0.3-1.2,0.1-2.2,1.1-2.6c0.4-0.2,0.8-0.2,1.2-0.2
		c6.5-0.2,13-0.3,19.5,0c1.2,0,2.1,1,2.1,2.2c0,1.3-0.8,2.1-2.1,2.1C59.6,35.3,56.3,35.4,53,35.5z"/>
	<path class="st0" d="M52.8,43.5c3.1,0,6.1,0,9.2,0c0.5,0,0.9,0,1.4,0.1c1,0.2,1.6,0.9,1.6,2c0,1.2-0.5,2-1.6,2.1
		C62,48,60.6,48,59.2,48c-4.7,0-9.5,0-14.2,0c-0.7,0-1.5-0.1-2.2-0.2c-1.2-0.2-1.7-1-1.6-2.3c0.1-1.1,0.8-1.9,2-1.9
		c2-0.1,4-0.1,6-0.1C50.3,43.4,51.5,43.4,52.8,43.5C52.8,43.5,52.8,43.5,52.8,43.5z"/>
	<path class="st0" d="M53,56.3c3.1,0,6.3,0,9.4,0c0.3,0,0.6,0,0.9,0c1.1,0.1,1.7,0.9,1.7,2c0,0.8-0.4,2-1.6,2.1
		c-1.5,0.1-3,0.2-4.5,0.2c-5.3,0-10.6,0-16,0c-0.8,0-1.8-0.9-1.9-1.7c-0.2-1.7,0.6-2.7,2.4-2.7C46.6,56.2,49.8,56.2,53,56.3
		C53,56.3,53,56.3,53,56.3z"/>
	<path class="st0" d="M55.2,68.9c-0.1,0.2-0.1,0.2-0.1,0.3c-0.7,1.3-1.4,2.6-2,3.9c-0.1,0.2-0.2,0.4-0.5,0.4c-3.3,0-6.6-0.1-9.8-0.1
		c-0.1,0-0.2,0-0.3-0.1c-1-0.5-1.5-2-1.2-3c0.2-0.6,1.2-1.3,1.8-1.3c3.9,0,7.7,0,11.6,0C54.7,68.9,54.9,68.9,55.2,68.9z"/>
	<path class="st0" d="M31.1,33.5c1.2-1.6,2.4-3.2,3.6-4.7c0.5-0.7,1.1-1.3,1.6-2c0.5-0.6,1.2-0.5,1.7-0.2c0.7,0.4,1,1,0.6,1.7
		c-0.3,0.6-0.7,1.2-1.1,1.8c-1.7,2.2-3.4,4.5-5,6.7c-0.3,0.4-0.7,0.8-1.2,0.8c-0.5,0-1,0-1.3-0.5c-1.1-1.5-2.3-3.1-3.4-4.6
		c-0.5-0.6-0.3-1.4,0.3-2c0.5-0.4,1.3-0.4,1.8,0.1c0.7,0.7,1.3,1.5,1.9,2.3C30.8,33,30.9,33.2,31.1,33.5z"/>
	<path class="st0" d="M31.1,71.5c1.2-1.6,2.3-3.1,3.5-4.6c0.5-0.6,1-1.2,1.5-1.9c0.7-0.9,2.1-0.7,2.6,0.1c0.2,0.3,0.2,0.7,0.1,1
		c-0.3,0.6-0.6,1.2-1,1.7c-1.6,2.2-3.2,4.3-4.9,6.5c-0.3,0.4-0.7,0.8-1.1,1.1c-0.5,0.4-1,0.3-1.4-0.1c-1.3-1.7-2.6-3.3-3.9-5
		c-0.4-0.6-0.3-1.2,0.3-1.7c0.5-0.5,1.2-0.6,1.8-0.2c0.5,0.4,0.9,0.8,1.3,1.3C30.2,70.3,30.6,70.9,31.1,71.5z"/>
	<path class="st0" d="M31.1,46.2c1.1-1.5,2.2-2.9,3.2-4.3c0.6-0.8,1.3-1.6,2-2.4c0.5-0.6,1.2-0.6,1.7-0.3c0.8,0.4,1,1,0.6,1.8
		c-0.3,0.6-0.6,1.1-1,1.6c-1.6,2.2-3.3,4.3-4.9,6.5c-0.3,0.4-0.6,0.7-1,1c-0.5,0.4-1.1,0.4-1.5-0.1c-1.3-1.6-2.6-3.3-3.8-4.9
		c-0.4-0.6-0.2-1.4,0.4-1.9c0.5-0.4,1.3-0.4,1.8,0c0.5,0.5,1,1.1,1.5,1.6C30.4,45.2,30.7,45.7,31.1,46.2z"/>
	<path class="st0" d="M31.1,58.8c1.1-1.5,2.2-2.9,3.3-4.4c0.6-0.8,1.3-1.6,1.9-2.3c0.5-0.6,1.1-0.6,1.7-0.1c0.7,0.5,0.9,1,0.5,1.7
		c-0.3,0.5-0.6,1.1-1,1.5c-1.6,2.2-3.2,4.3-4.9,6.5c-0.3,0.4-0.6,0.7-1,1c-0.5,0.4-1.1,0.4-1.5-0.1c-1.3-1.6-2.6-3.2-3.8-4.9
		c-0.5-0.6-0.3-1.3,0.3-1.8c0.6-0.5,1.4-0.6,1.9,0c0.7,0.7,1.3,1.6,2,2.4C30.8,58.4,30.9,58.6,31.1,58.8z"/>
	<path class="st0" d="M69.9,82.6c0.8-1.1,1.6-2.1,2.4-3.1c1.3-1.7,2.6-3.4,3.9-5.1c0.3-0.4,0.7-0.9,1.1-1.3c0.5-0.6,1.2-0.9,1.9-0.7
		c0.9,0.2,1.6,0.7,1.8,1.6c0.1,0.4,0,1-0.2,1.3c-0.5,0.8-1,1.7-1.6,2.4c-2.4,3.3-4.9,6.5-7.4,9.8c-0.2,0.2-0.3,0.4-0.5,0.6
		c-1.5,1.1-2.2,0.8-3.1-0.1c-1.3-1.6-2.6-3.3-3.9-4.9c-0.5-0.6-0.9-1.2-1.3-1.9c-0.6-0.9-0.3-2.1,0.4-2.8c0.8-0.7,2.1-0.7,2.9,0.1
		c0.6,0.6,1.1,1.2,1.6,1.9c0.5,0.7,1.1,1.4,1.6,2C69.7,82.5,69.8,82.5,69.9,82.6z"/>
</g>
</svg>
