<?xml version="1.0" encoding="utf-8"?>
<!-- Generator: Adobe Illustrator 21.0.0, SVG Export Plug-In . SVG Version: 6.00 Build 0)  -->
<svg version="1.1" id="Layer_1" xmlns="http://www.w3.org/2000/svg" xmlns:xlink="http://www.w3.org/1999/xlink" x="0px" y="0px"
	 viewBox="0 0 100 100" style="enable-background:new 0 0 100 100;" xml:space="preserve">
<style type="text/css">
	.st0{fill:#4c5e70;}
</style>
<g>
	<path class="st0" d="M49.5,65.1c-0.4,0.5-0.7,1.1-1.1,1.5C38.1,76.9,27.9,87.2,17.6,97.6c-2.3,2.3-4,2.3-6.3,0
		c-2.8-2.8-5.6-5.6-8.3-8.4c-1.9-1.9-1.9-3.8,0-5.7c10.5-10.5,20.9-21,31.4-31.5c0.4-0.4,0.8-0.6,1.2-0.9c0.1-0.2,0.1-0.4,0.2-0.6
		c-0.4-0.2-1-0.4-1.3-0.8C24,39.3,13.5,28.9,3,18.5c-2.1-2.1-2.1-3.9,0-6c2.8-2.8,5.6-5.7,8.4-8.5c2-2,3.9-2,5.9,0
		c10.5,10.4,21,20.7,31.5,31.1c0.3,0.3,0.6,0.6,1,0.9c0.4-0.3,0.7-0.6,1-0.9c10.5-10.3,20.9-20.7,31.4-31c2.1-2.1,4-2.1,6.1,0
		c2.8,2.8,5.6,5.6,8.3,8.4c2.1,2.1,2,3.9,0,6c-10.3,10.2-20.6,20.4-31,30.6c-0.5,0.5-1.1,0.9-2.1,1.8c0.7,0.4,1.1,0.5,1.5,0.8
		c10.5,10.5,20.9,21,31.3,31.4c2.3,2.3,2.3,4,0,6.3c-2.7,2.7-5.3,5.4-8,8c-2.4,2.4-4,2.4-6.3,0C71.6,87.1,61.3,76.8,50.9,66.4
		c-0.3-0.3-0.6-0.8-0.8-1.3C49.9,65.1,49.7,65.1,49.5,65.1z"/>
</g>
</svg>
