<?xml version="1.0" encoding="utf-8"?>
<!-- Generator: Adobe Illustrator 21.0.0, SVG Export Plug-In . SVG Version: 6.00 Build 0)  -->
<svg version="1.1" id="Layer_1" xmlns="http://www.w3.org/2000/svg" xmlns:xlink="http://www.w3.org/1999/xlink" x="0px" y="0px"
	 viewBox="0 0 100 100" style="enable-background:new 0 0 100 100;" xml:space="preserve">
<style type="text/css">
	.st0{fill:#4c5e70;}
</style>
<g>
	<path class="st0" d="M1.2,53.8c0-2,0-4,0-6.1c0.1-0.3,0.1-0.5,0.2-0.8c0.3-2.2,0.5-4.4,1-6.6c4-18.8,19.9-34.1,38.8-37.2
		c1.8-0.3,3.6-0.5,5.4-0.7c2,0,4,0,6.1,0c0.2,0.1,0.5,0.1,0.7,0.2c2.8,0.5,5.6,0.7,8.4,1.4c18.2,4.5,32.4,20,35.6,38.5
		c0.3,1.8,0.5,3.5,0.7,5.3c0,2,0,4,0,6.1c-0.1,0.3-0.1,0.5-0.2,0.8c-0.5,2.7-0.7,5.5-1.4,8.2C92,81.1,76.6,95.3,58,98.4
		c-1.8,0.3-3.5,0.5-5.3,0.7c-2,0-4,0-6.1,0c-0.2-0.1-0.5-0.1-0.7-0.2c-7.8-0.6-15.1-2.9-21.8-7.1C12,84.1,4.6,73.2,2,59
		C1.7,57.3,1.5,55.5,1.2,53.8z M59.9,67.5c-0.4,0.3-0.7,0.6-1,0.7c-1.9,1-3.8,2-5.8,2.9c-1,0.4-1.5,0-1.5-1.1c0-0.7,0.1-1.5,0.3-2.2
		c1.6-6.2,3.3-12.5,4.9-18.7c0.5-2.1,0.8-4.2,0.3-6.3c-0.4-1.7-1.6-2.5-3.3-2.3c-0.9,0.1-1.8,0.2-2.6,0.5c-4.5,1.2-8.7,3.4-12.6,5.9
		c-2.1,1.4-4,2.9-6.1,4.3c0.6,1,1.2,1.9,1.6,2.7c2.2-1,4.4-2,6.6-2.9c0.6-0.2,1.3-0.2,1.9-0.2c0,0.6,0.1,1.3,0,1.8
		C41.3,57.7,40,62.8,38.8,68c-0.7,2.8-1.5,5.5-1.4,8.4c0.1,3.5,2.1,5.2,5.5,4.6c4.1-0.7,7.8-2.6,11.3-4.8c2.7-1.8,5.3-3.8,7.5-6.1
		C61.1,69.1,60.5,68.3,59.9,67.5z M51.9,32.4C51.9,32.4,51.9,32.4,51.9,32.4c0.3,0,0.6,0,0.9,0c4.3-0.2,7.5-3.2,7.9-7.2
		c0.4-3.8-1.5-6.2-5.3-6.6c-1-0.1-2-0.1-2.9,0.1c-3.3,0.5-5.8,2.2-6.9,5.4c-1.5,4.2,0.5,7.6,4.7,8.3C50.8,32.4,51.4,32.4,51.9,32.4z
		"/>
</g>
</svg>
