<?xml version="1.0" encoding="utf-8"?>
<!-- Generator: Adobe Illustrator 21.0.0, SVG Export Plug-In . SVG Version: 6.00 Build 0)  -->
<svg version="1.1" id="Layer_1" xmlns="http://www.w3.org/2000/svg" xmlns:xlink="http://www.w3.org/1999/xlink" x="0px" y="0px"
	 viewBox="0 0 100 100" style="enable-background:new 0 0 100 100;" xml:space="preserve">
<style type="text/css">
	.st0{fill:#4c5e70;}
</style>
<g>
	<path class="st0" d="M3.6,92.9c4.6,5.9,14,6.3,21.1,0.9c2.9-2.2,4.9-5.1,6-8c0.6-1.3,1-3,1-5.1V35.1l54.9-10.4v24.1
		c0,8.5-6.5,10.4-8.8,10.9c-0.2,0-0.4,0.1-0.6,0.1c-0.1,0-0.3,0-0.3,0l0,0c-2.7,0.5-5.5,1.6-7.9,3.5C62,68.8,60,78,64.5,83.9
		c4.6,5.9,14,6.3,21.1,0.9c3.6-2.8,5.9-6.5,6.6-10.3c0.3-0.9,0.5-1.9,0.5-3.1V12.2c0-0.4-0.1-0.7-0.1-1c0-0.2,0.1-0.4,0.1-0.6V4.5
		c0-3.4-2.7-5.3-6.1-4.2L31.7,10.7c-3.4,1-6.1,4.6-6.1,8v6.1c0,0.1,0,0.1,0,0.2c0,0.2,0,0.3,0,0.5v32.3c0,8.5-6.5,10.5-8.8,10.9
		c-0.1,0-0.2,0.1-0.4,0.1c-0.3,0-0.5,0.1-0.5,0.1l0.1,0c-2.7,0.5-5.4,1.6-7.8,3.5C1.1,77.8-0.9,87,3.6,92.9z"/>
</g>
</svg>
