<?xml version="1.0" encoding="utf-8"?>
<!-- Generator: Adobe Illustrator 24.0.2, SVG Export Plug-In . SVG Version: 6.00 Build 0)  -->
<svg version="1.1" id="Layer_1" xmlns="http://www.w3.org/2000/svg" xmlns:xlink="http://www.w3.org/1999/xlink" x="0px" y="0px"
	 viewBox="0 0 100 100" style="enable-background:new 0 0 100 100;" xml:space="preserve">
<style type="text/css">
	.st0{fill:#4C5E70;}
</style>
<title>search</title>
<path class="st0" d="M98.1,84.5c2.5,2.9,2.8,5.5,0.8,7.9L93,98.2c-3,2.7-6,2.7-8.6,0L60.3,74.1c-6.2,3.6-12.8,5.3-19.8,5.3
	c-10.8,0-20.3-4.1-28.3-12s-12-17.5-12-28.3s3.8-20,11.4-27.8S28.5-0.2,39.3-0.2s20.3,4.1,28.4,12s12.2,17.5,12.2,28.3
	c0,7.5-1.9,14.3-5.8,20.5L98.1,84.5L98.1,84.5z M12.2,39.1c0,7.5,2.9,14.1,8.6,19.8s12.3,8.6,19.8,8.6s13.8-2.7,19.1-8
	s8-11.8,8-19.4c0-7.5-2.9-13.9-8.6-19.7S46.8,12,39.3,12s-13.8,2.7-19.1,8S12.2,31.6,12.2,39.1L12.2,39.1z"/>
</svg>
