<?xml version="1.0" encoding="utf-8"?>
<!-- Generator: Adobe Illustrator 21.0.0, SVG Export Plug-In . SVG Version: 6.00 Build 0)  -->
<svg version="1.1" id="Layer_1" xmlns="http://www.w3.org/2000/svg" xmlns:xlink="http://www.w3.org/1999/xlink" x="0px" y="0px"
	 viewBox="0 0 100 100" style="enable-background:new 0 0 100 100;" xml:space="preserve">
<style type="text/css">
	.st0{fill:#2DC1E9;}
</style>
<path class="st0" d="M25,28.1v62.5c0,5.2-4.2,9.4-9.4,9.4H9.4C4.2,100,0,95.8,0,90.6V28.1c0-5.2,4.2-9.4,9.4-9.4h6.3
	C20.8,18.8,25,22.9,25,28.1z M100,40.6v50c0,5.2-4.2,9.4-9.4,9.4H37.5c-5.2,0-9.4-4.2-9.4-9.4V7.8c0-4.3,3.5-7.8,7.8-7.8h40.5
	c2.1,0,4.1,0.8,5.5,2.3l9.5,9.5c1.5,1.5,2.3,3.5,2.3,5.5v14.5C97.4,33.1,100,36.5,100,40.6z M37.5,37.5h46.9V18.8h-4.7
	c-2.6,0-4.7-2.1-4.7-4.7V9.4H37.5V37.5z M56.3,77.3c0-1.3-1-2.3-2.3-2.3h-7.8c-1.3,0-2.3,1-2.3,2.3v7.8c0,1.3,1,2.3,2.3,2.3H54
	c1.3,0,2.3-1,2.3-2.3V77.3z M56.3,52.3c0-1.3-1-2.3-2.3-2.3h-7.8c-1.3,0-2.3,1-2.3,2.3v7.8c0,1.3,1,2.3,2.3,2.3H54
	c1.3,0,2.3-1,2.3-2.3V52.3z M81.3,77.3c0-1.3-1-2.3-2.3-2.3h-7.8c-1.3,0-2.3,1-2.3,2.3v7.8c0,1.3,1,2.3,2.3,2.3H79
	c1.3,0,2.3-1,2.3-2.3V77.3z M81.3,52.3c0-1.3-1-2.3-2.3-2.3h-7.8c-1.3,0-2.3,1-2.3,2.3v7.8c0,1.3,1,2.3,2.3,2.3H79
	c1.3,0,2.3-1,2.3-2.3V52.3z"/>
</svg>
