<?xml version="1.0" encoding="utf-8"?>
<!-- Generator: Adobe Illustrator 21.0.0, SVG Export Plug-In . SVG Version: 6.00 Build 0)  -->
<svg version="1.1" id="Layer_1" xmlns="http://www.w3.org/2000/svg" xmlns:xlink="http://www.w3.org/1999/xlink" x="0px" y="0px"
	 viewBox="0 0 100 100" style="enable-background:new 0 0 100 100;" xml:space="preserve">
<style type="text/css">
	.st0{fill:#AAB2B6;}
</style>
<path class="st0" d="M50,62.5c6.9,0,12.5-5.6,12.5-12.5l0-25c0-6.9-5.6-12.5-12.5-12.5c-6.9,0-12.5,5.6-12.5,12.5v25
	C37.5,56.9,43.1,62.5,50,62.5z M72.1,50c0,12.5-10.6,21.3-22.1,21.3c-11.5,0-22.1-8.8-22.1-21.3h-7.1c0,14.2,11.3,26,25,28v13.7h8.3
	V78c13.7-2,25-13.8,25-28H72.1z"/>
</svg>
