<?xml version="1.0" encoding="utf-8"?>
<!-- Generator: Adobe Illustrator 21.0.0, SVG Export Plug-In . SVG Version: 6.00 Build 0)  -->
<svg version="1.1" id="Layer_1" xmlns="http://www.w3.org/2000/svg" xmlns:xlink="http://www.w3.org/1999/xlink" x="0px" y="0px"
	 viewBox="0 0 100 100" style="enable-background:new 0 0 100 100;" xml:space="preserve">
<style type="text/css">
	.st0{fill:#AEB5B9;}
</style>
<path class="st0" d="M11.8,79.2c-2.3-5.3-3.5-10.9-3.5-16.7c0-23,18.7-41.7,41.7-41.7s41.7,18.7,41.7,41.7c0,5.7-1.2,11.4-3.5,16.7
	H11.8z M82.3,70.8c4.6-17.8-6.2-36-24-40.6s-36,6.2-40.6,24c-1.4,5.4-1.4,11.1,0,16.6H82.3z M50,41.7c-2.3,0-4.2-1.9-4.2-4.2
	s1.9-4.2,4.2-4.2c2.3,0,4.2,1.9,4.2,4.2S52.3,41.7,50,41.7z M29.2,58.3c-2.3,0-4.2-1.9-4.2-4.2c0-2.3,1.9-4.2,4.2-4.2
	s4.2,1.9,4.2,4.2C33.3,56.5,31.5,58.3,29.2,58.3z M70.8,58.3c-2.3,0-4.2-1.9-4.2-4.2c0-2.3,1.9-4.2,4.2-4.2c2.3,0,4.2,1.9,4.2,4.2
	C75,56.5,73.1,58.3,70.8,58.3z M50,45.8c2.3,0,4.2,1.9,4.2,4.2v12.5c0,2.3-1.9,4.2-4.2,4.2c-2.3,0-4.2-1.9-4.2-4.2V50
	C45.8,47.7,47.7,45.8,50,45.8z"/>
</svg>
