<?xml version="1.0" encoding="utf-8"?>
<!-- Generator: Adobe Illustrator 24.0.2, SVG Export Plug-In . SVG Version: 6.00 Build 0)  -->
<svg version="1.1" id="Layer_1" xmlns="http://www.w3.org/2000/svg" xmlns:xlink="http://www.w3.org/1999/xlink" x="0px" y="0px"
	 viewBox="0 0 100 100" style="enable-background:new 0 0 100 100;" xml:space="preserve">
<style type="text/css">
	.st0{fill:#AAB2B6;}
</style>
<path class="st0" d="M4.2,85C1.4,78.7,0,71.9,0,65c0-27.6,22.4-50,50-50s50,22.4,50,50c0,6.8-1.4,13.7-4.2,20H4.2z M88.7,74.9
	c5.5-21.3-7.4-43.2-28.8-48.7S16.8,33.7,11.3,55c-1.7,6.5-1.7,13.3,0,19.9H88.7z M50,40c-2.8,0-5-2.3-5-5s2.3-5,5-5s5,2.3,5,5
	S52.8,40,50,40z M25.1,60c-2.8,0-5-2.3-5-5s2.3-5,5-5s5,2.3,5,5C30,57.8,27.8,60,25.1,60z M74.9,60c-2.8,0-5-2.3-5-5s2.3-5,5-5
	c2.8,0,5,2.3,5,5C80,57.8,77.7,60,74.9,60z M50,45c2.8,0,5,2.3,5,5v15c0,2.8-2.3,5-5,5s-5-2.3-5-5V50C45,47.2,47.2,45,50,45z"/>
</svg>
