<?xml version="1.0" encoding="utf-8"?>
<!-- Generator: Adobe Illustrator 24.0.2, SVG Export Plug-In . SVG Version: 6.00 Build 0)  -->
<svg version="1.1" id="Layer_1" xmlns="http://www.w3.org/2000/svg" xmlns:xlink="http://www.w3.org/1999/xlink" x="0px" y="0px"
	 viewBox="0 0 100 100" style="enable-background:new 0 0 100 100;" xml:space="preserve">
<style type="text/css">
	.st0{fill:#FFFFFF;}
</style>
<polygon class="st0" points="69,77.6 53,98.4 37,77.6 45.3,77.6 45.3,25.4 60.8,25.4 60.8,60.1 60.8,60.1 60.8,77.6 "/>
<path class="st0" d="M61.7,65.7V44.1C62.1,50.7,67.6,56,74.3,56h5.5v-7.9l18.6,14.4L79.7,76.8V69h-5.5C69.7,69,65.4,67.8,61.7,65.7z
	"/>
<path class="st0" d="M45.5,57.2V31.6c-0.5,7.8-7,14.1-15,14.1H24v-9.3l-22.2,17L24,70.5v-9.3h6.5C35.9,61.2,41,59.7,45.5,57.2z"/>
<circle class="st0" cx="52.7" cy="13.3" r="9.9"/>
</svg>
