<?xml version="1.0" encoding="utf-8"?>
<!-- Generator: Adobe Illustrator 21.0.0, SVG Export Plug-In . SVG Version: 6.00 Build 0)  -->
<svg version="1.1" id="Layer_1" xmlns="http://www.w3.org/2000/svg" xmlns:xlink="http://www.w3.org/1999/xlink" x="0px" y="0px"
	 viewBox="0 0 100 100" style="enable-background:new 0 0 100 100;" xml:space="preserve">
<style type="text/css">
	.st0{fill:#ffffff;}
</style>
<title>logout</title>
<path class="st0" d="M55.2,85V75H65v10c0,2.7-1,5-2.9,7s-4.3,3-7.1,3H15c-2.7,0-5-1-7-3s-3-4.3-3-7V15c0-2.8,1-5.2,3-7.1
	S12.3,5,15,5h40c2.8,0,5.2,1,7.1,2.9S65,12.2,65,15v15h-9.8V15H15v70H55.2C55.2,85,55.2,85,55.2,85z M95,52.4L75.2,72V60h-45V45h45
	V33C75.2,33,95,52.4,95,52.4z"/>
</svg>
