<?xml version="1.0" encoding="utf-8"?>
<!-- Generator: Adobe Illustrator 21.0.0, SVG Export Plug-In . SVG Version: 6.00 Build 0)  -->
<svg version="1.1" id="Layer_1" xmlns="http://www.w3.org/2000/svg" xmlns:xlink="http://www.w3.org/1999/xlink" x="0px" y="0px"
	 viewBox="0 0 100 100" style="enable-background:new 0 0 100 100;" xml:space="preserve">
<style type="text/css">
	.st0{fill:#ffffff;}
</style>
<path class="st0" d="M71.2,26.5H3.7c-1.8,0-3.3-1.5-3.3-3.3V3.6c0-1.8,1.5-3.3,3.3-3.3h67.5c1.8,0,3.3,1.5,3.3,3.3v19.5
	C74.5,25,73,26.5,71.2,26.5z"/>
<path class="st0" d="M94.5,73.9H41.2c-1.8,0-3.3-1.5-3.3-3.3V57.4c0-1.8,1.5-3.3,3.3-3.3h53.2c1.8,0,3.3,1.5,3.3,3.3v13.2
	C97.8,72.4,96.3,73.9,94.5,73.9z"/>
<path class="st0" d="M94.5,96.1H41.3c-1.8,0-3.3-1.5-3.3-3.3V79.6c0-1.8,1.5-3.3,3.3-3.3h53.2c1.8,0,3.3,1.5,3.3,3.3v13.2
	C97.9,94.6,96.4,96.1,94.5,96.1z"/>
<rect x="19.8" y="27.6" class="st0" width="3.4" height="61.5"/>
<rect x="26.2" y="55.7" transform="matrix(-1.836970e-16 1 -1 -1.836970e-16 92.0803 35.7865)" class="st0" width="3.8" height="16.4"/>
<rect x="26.1" y="79.3" transform="matrix(-1.836970e-16 1 -1 -1.836970e-16 115.4761 59.5213)" class="st0" width="3.8" height="16.4"/>
</svg>
