<?xml version="1.0" encoding="utf-8"?>
<!-- Generator: Adobe Illustrator 24.0.2, SVG Export Plug-In . SVG Version: 6.00 Build 0)  -->
<svg version="1.1" id="Layer_1" xmlns="http://www.w3.org/2000/svg" xmlns:xlink="http://www.w3.org/1999/xlink" x="0px" y="0px"
	 viewBox="0 0 100 100" style="enable-background:new 0 0 100 100;" xml:space="preserve">
<style type="text/css">
	.st0{fill:#fe993f;}
</style>
<g>
	<path class="st0" d="M49.45,64.19c-0.34,0.47-0.63,0.99-1.04,1.4c-9.54,9.61-19.1,19.2-28.65,28.79c-2.17,2.18-3.69,2.17-5.87-0.03
		c-2.59-2.6-5.18-5.2-7.76-7.8c-1.75-1.77-1.75-3.51,0.02-5.29C15.9,71.48,25.64,61.7,35.4,51.92c0.33-0.33,0.74-0.58,1.11-0.87
		c0.07-0.18,0.13-0.36,0.2-0.54c-0.41-0.23-0.89-0.38-1.21-0.7c-9.78-9.64-19.55-19.3-29.31-28.96c-1.94-1.91-1.95-3.61-0.03-5.55
		c2.61-2.64,5.21-5.27,7.83-7.89c1.84-1.85,3.6-1.84,5.47,0.01c9.77,9.65,19.54,19.3,29.32,28.95c0.27,0.27,0.56,0.53,0.93,0.88
		c0.33-0.31,0.64-0.59,0.93-0.88c9.73-9.63,19.47-19.27,29.2-28.9c1.98-1.96,3.68-1.96,5.64,0.01c2.59,2.6,5.18,5.2,7.76,7.8
		c1.91,1.93,1.9,3.65-0.02,5.55c-9.6,9.49-19.2,18.98-28.81,28.47c-0.47,0.46-1,0.86-1.92,1.65c0.61,0.35,1.06,0.49,1.35,0.78
		C73.57,61.48,83.29,71.24,93.01,81c2.15,2.16,2.15,3.7-0.01,5.87c-2.48,2.49-4.95,4.98-7.43,7.47c-2.19,2.2-3.71,2.21-5.87,0.04
		c-9.64-9.67-19.28-19.34-28.91-29.02c-0.32-0.33-0.52-0.78-0.77-1.17C49.82,64.18,49.63,64.19,49.45,64.19z"/>
</g>
</svg>
