<?xml version="1.0" encoding="utf-8"?>
<!-- Generator: Adobe Illustrator 24.0.2, SVG Export Plug-In . SVG Version: 6.00 Build 0)  -->
<svg version="1.1" id="Layer_1" xmlns="http://www.w3.org/2000/svg" xmlns:xlink="http://www.w3.org/1999/xlink" x="0px" y="0px"
	 viewBox="0 0 100 100" style="enable-background:new 0 0 100 100;" xml:space="preserve">
<style type="text/css">
	.st0{fill:#FE993F;}
</style>
<title>search</title>
<path class="st0" d="M97.9,84.4c2.5,2.9,2.8,5.4,0.8,7.8L92.9,98c-3,2.7-5.9,2.7-8.6,0l-24-24c-6.2,3.5-12.8,5.3-19.7,5.3
	c-10.7,0-20.2-4-28.2-12s-12-17.4-12-28.2s3.8-20,11.4-27.7S28.6,0,39.3,0s20.2,4,28.3,12s12.1,17.4,12.1,28.2
	c0,7.5-1.9,14.3-5.8,20.5L97.9,84.4L97.9,84.4z M12.3,39.1c0,7.5,2.9,14,8.6,19.7s12.3,8.6,19.7,8.6s13.8-2.7,19.1-8s8-11.7,8-19.3
	c0-7.5-2.9-13.9-8.6-19.6s-12.3-8.5-19.7-8.5s-13.8,2.7-19.1,8S12.3,31.7,12.3,39.1L12.3,39.1z"/>
</svg>
