<?xml version="1.0" encoding="utf-8"?>
<!-- Generator: Adobe Illustrator 21.0.0, SVG Export Plug-In . SVG Version: 6.00 Build 0)  -->
<svg version="1.1" id="Layer_1" xmlns="http://www.w3.org/2000/svg" xmlns:xlink="http://www.w3.org/1999/xlink" x="0px" y="0px"
	 viewBox="0 0 100 100" style="enable-background:new 0 0 100 100;" xml:space="preserve">
<style type="text/css">
	.st0{fill:#fe993f;}
</style>
<title>phone3</title>
<path class="st0" d="M81.3,100H15.6c-3.5,0-6.3-2.8-6.3-6.3v-75c0-3.5,2.8-6.2,6.3-6.2v75c0,3.4,2.8,6.3,6.3,6.3h12.5
	c3.5,0,6.3-2.8,6.3-6.3v-75h40.6c3.5,0,6.3,2.8,6.3,6.2v75C87.5,97.2,84.7,100,81.3,100z M65.6,90.6h6.3v-6.3h-6.3V90.6z M65.6,81.2
	h6.3V75h-6.3V81.2z M65.6,71.9h6.3v-6.3h-6.3V71.9z M65.6,62.5h6.3v-6.3h-6.3V62.5z M56.3,90.6h6.3v-6.3h-6.3V90.6z M56.3,81.2h6.3
	V75h-6.3V81.2z M56.3,71.9h6.3v-6.3h-6.3V71.9z M56.3,62.5h6.3v-6.3h-6.3V62.5z M81.3,21.9c0-1.7-1.4-3.1-3.1-3.1H50
	c-1.7,0-3.1,1.4-3.1,3.1v12.5c0,1.7,1.4,3.1,3.1,3.1h28.1c1.7,0,3.1-1.4,3.1-3.1V21.9z M81.3,56.2H75v6.3h6.3V56.2z M81.3,65.6H75
	v6.3h6.3V65.6z M81.3,75H75v6.3h6.3V75z M81.3,84.4H75v6.3h6.3V84.4z M34.4,90.6H21.9c-1.7,0-3.1-1.4-3.1-3.1V9.4
	c0-1.7,1.4-3.1,3.1-3.1h6.1V0h3.3v6.2h3.1c1.7,0,3.1,1.4,3.1,3.1v78.1C37.5,89.2,36.1,90.6,34.4,90.6z"/>
</svg>
