<?xml version="1.0" encoding="utf-8"?>
<!-- Generator: Adobe Illustrator 21.0.0, SVG Export Plug-In . SVG Version: 6.00 Build 0)  -->
<svg version="1.1" id="Layer_1" xmlns="http://www.w3.org/2000/svg" xmlns:xlink="http://www.w3.org/1999/xlink" x="0px" y="0px"
	 viewBox="0 0 100 100" style="enable-background:new 0 0 100 100;" xml:space="preserve">
<style type="text/css">
	.st0{fill:#2dc1e9;}
</style>
<path class="st0" d="M81.5,61.8c-20.4,0-40.7,0-61.1,0c-0.9-5.2,1-9.1,5.2-11.6c3.7-2.2,7.7-3.8,11.6-5.4c6.7-2.8,7-3.7,2.9-9.6
	c-4.2-6.1-5.7-12.8-3.6-20c2.1-7.3,8.1-11.7,15.2-11.3c7.1,0.4,12.7,5.4,14.1,12.7c1.2,6,0.3,11.7-3,16.9c-1,1.6-2.1,3.2-3.1,4.8
	c-1.5,2.3-1.3,3.5,1.2,4.7c2.3,1.2,4.9,2,7.2,3.2c2.8,1.3,5.6,2.5,8.2,4.1C80.4,52.8,82.4,56.6,81.5,61.8z"/>
<path class="st0" d="M32,85.3c12.7,3,25.1,2.5,37.7,0.1c-0.5-2.4-1-4.5-1.2-6.7c-0.5-3.9,0.5-5.4,4.2-6.6c4.4-1.4,8.8-2.8,13.2-4.2
	c3.2-1,4.7-0.4,6.2,2.6c3.9,8.2-0.2,20.3-8.7,23.5c-6,2.3-12.5,3.9-18.9,4.8c-14.2,2-28.3,1.2-42.1-3.3C12,92.2,7,84.1,8.8,73.7
	c0.2-1.4,0.7-2.7,1.4-3.9c1.3-2.4,2.7-3,5.3-2.1c4.6,1.5,9.3,3,13.9,4.5c3.4,1.1,4.3,2.5,4,6.1c-0.1,1.1-0.3,2.3-0.5,3.4
	C32.7,82.7,32.4,83.8,32,85.3z"/>
<path class="st0" d="M37.7,39.7c-3.3,1.3-6.3,2.6-9.4,3.8c-4.4,1.9-8.3,4.5-10.8,8.7c-0.3,0.5-1.1,1-1.7,1c-4.5,0.1-9.1,0-13.7,0
	c-0.8-3.7-0.1-7,3-9.1c3.1-2.1,6.7-3.5,10-5.2c1.4-0.7,2.9-1.2,4.3-1.9c2.6-1.4,3-2.7,1.2-5.2c-2.5-3.4-4.5-7.1-5.1-11.4
	C15,16.8,15.4,13.2,17,9.8c3.5-7.6,13.2-9.9,19.6-4.6C28.1,16.8,30.1,28.2,37.7,39.7z"/>
<path class="st0" d="M99.9,53.2c-4.7,0-9.3,0-14,0c-0.5,0-1.1-0.4-1.4-0.8c-3.2-5.5-8.5-8.1-14.1-10.3c-2-0.8-4.1-1.6-6.2-2.5
	c7.5-11.5,9.7-22.8,1.2-34.4c7.4-6.4,18.7-2,20.8,8c1.2,5.8,0,11.1-3.1,16.1c-0.6,1-1.4,1.9-2,2.8c-1.3,2-1.1,3.3,1,4.5
	c2.1,1.1,4.4,1.9,6.5,2.9c2.3,1.1,4.7,2.1,6.9,3.4C99.1,45.2,100.7,48.5,99.9,53.2z"/>
</svg>
