<?xml version="1.0" encoding="utf-8"?>
<!-- Generator: Adobe Illustrator 21.0.0, SVG Export Plug-In . SVG Version: 6.00 Build 0)  -->
<svg version="1.1" id="Layer_1" xmlns="http://www.w3.org/2000/svg" xmlns:xlink="http://www.w3.org/1999/xlink" x="0px" y="0px"
	 viewBox="0 0 100 100" style="enable-background:new 0 0 100 100;" xml:space="preserve">

<g>
<style type="text/css">
	.st0{fill:#2dc1e9;}
</style>
	<path class="st0" d="M67.5,35.6c0,5.5,0.3,11-0.1,16.5c-0.5,7.8-4.6,13.3-11.8,16.2c-10.9,4.4-22.9-2.2-25.3-13.8c-0.3-1.4-0.4-2.8-0.4-4.3
		c0-9.8-0.1-19.7,0-29.5c0.1-8.1,3.7-14,11-17.6c11-5.3,24.6,1.9,26.4,14.1c0.2,1.5,0.3,3,0.3,4.6C67.6,26.5,67.5,31,67.5,35.6
		C67.5,35.6,67.5,35.6,67.5,35.6z"/>
	<path class="st0" d="M45.3,90.5c0-2.9,0-5.8,0-8.6c0-0.2-0.5-0.5-0.8-0.5c-3.9-0.5-7.5-1.7-10.9-3.7c-7.9-4.6-12.8-11.3-14.8-20.2
		c-0.5-2.1-0.6-4.2-0.7-6.4c-0.1-2,1.3-3.5,3.3-3.6c1.9-0.1,3.3,1.3,3.4,3.3c0.2,3.9,1,7.6,2.7,11.1c4.4,8.9,15.1,14.3,24.8,12.6
		c9.4-1.7,15.8-7.1,19-16.1c0.9-2.4,1.1-4.9,1.2-7.4c0.1-2.2,1.6-3.5,3.5-3.4c2,0.1,3.3,1.6,3.2,3.7c-0.4,10.8-5,19.3-13.9,25.3
		c-3.8,2.6-8,4.1-12.5,4.7c-0.7,0.1-0.9,0.3-0.9,1c0,2.7,0,5.3,0,8.1c0.4,0,0.7,0,1.1,0c3.7,0,7.5,0,11.2,0c2.4,0,3.9,2.2,3.2,4.4
		c-0.4,1.4-1.7,2.3-3.3,2.3c-2.4,0-4.9,0-7.3,0c-7.9,0-15.8,0-23.7,0c-1.8,0-3-0.8-3.5-2.2c-0.8-2.3,0.8-4.5,3.2-4.5
		c3.7,0,7.4,0,11,0C44.5,90.5,44.8,90.5,45.3,90.5z"/>
</g>
</svg>
