<?xml version="1.0" encoding="utf-8"?>
<!-- Generator: Adobe Illustrator 24.0.2, SVG Export Plug-In . SVG Version: 6.00 Build 0)  -->
<svg version="1.1" id="Layer_1" xmlns="http://www.w3.org/2000/svg" xmlns:xlink="http://www.w3.org/1999/xlink" x="0px" y="0px"
	 viewBox="0 0 100 100" style="enable-background:new 0 0 100 100;" xml:space="preserve">
<style type="text/css">
	.st0{fill:#2DC1E9;}
</style>
<path class="st0" d="M97.1,78.4c-3.9-3.9-13.1-9.6-17.6-11.7c-5.2-2.5-7.2-2.5-10.9,0.3c-3.1,2.3-5.1,4.3-8.7,3.6
	c-3.6-0.8-10.5-6.1-17.5-12.9c-6.8-6.8-12.1-13.9-12.9-17.5c-0.8-3.6,1.3-5.6,3.6-8.7c2.7-3.7,2.8-5.6,0.3-10.9
	C31.2,16,25.5,6.8,21.6,2.9S17,0,14.8,0.7c0,0-3.1,1.2-6.3,3.3c-3.9,2.5-6,4.7-7.5,7.9s-3.2,9.2,5.6,24.8C13.8,49.2,20.7,58.8,31,69
	l0,0l0,0c10.3,10.3,19.7,17.2,32.4,24.2c15.6,8.8,21.6,7.1,24.8,5.6c3.2-1.5,5.3-3.6,7.9-7.5c2-3.1,3.3-6.3,3.3-6.3
	C100.1,83,100.9,82.1,97.1,78.4z"/>
</svg>
