<?xml version="1.0" encoding="utf-8"?>
<!-- Generator: Adobe Illustrator 21.0.0, SVG Export Plug-In . SVG Version: 6.00 Build 0)  -->
<svg version="1.1" id="Layer_1" xmlns="http://www.w3.org/2000/svg" xmlns:xlink="http://www.w3.org/1999/xlink" x="0px" y="0px"
	 viewBox="0 0 100 100" style="enable-background:new 0 0 100 100;" xml:space="preserve">
	 <style type="text/css">
	.st0{fill:#2dc1e9;}
</style>
<g>
	<path class="st0" d="M3.2,53.2c0-1.9,0-3.8,0-5.6c0.1-0.7,0.2-1.4,0.2-2C4.6,35.2,8.5,26,15.5,18.3C22.9,10.1,32.1,4.9,43,3
		c1.8-0.3,3.6-0.5,5.5-0.7c1.9,0,3.8,0,5.6,0c1.6,0.2,3.2,0.3,4.8,0.6c10.1,1.7,18.8,6,26,13.2C95.8,26.9,100.6,40,99.2,55.2
		c-0.9,10.2-4.9,19.2-11.8,26.9C78.4,92.3,67,97.8,53.4,98.5c-9.5,0.5-18.4-1.8-26.6-6.7C14.3,84.1,6.6,73.1,3.9,58.7
		C3.6,56.9,3.4,55,3.2,53.2z M30.6,20.9c16.7,16.7,33.5,33.5,50.2,50.2c9.6-13.1,9.3-32.9-3.9-46.2C63.9,11.9,44.1,11.1,30.6,20.9z
		 M21.9,29.7c-9.4,12.7-9.5,32.6,3.9,46.1c12.7,12.9,32.6,14.1,46.4,4.1C55.3,63.1,38.6,46.4,21.9,29.7z"/>
</g>
</svg>
