<?xml version="1.0" encoding="utf-8"?>
<!-- Generator: Adobe Illustrator 21.0.0, SVG Export Plug-In . SVG Version: 6.00 Build 0)  -->
<svg version="1.1" id="Layer_1" xmlns="http://www.w3.org/2000/svg" xmlns:xlink="http://www.w3.org/1999/xlink" x="0px" y="0px"
	 viewBox="0 0 100 100" style="enable-background:new 0 0 100 100;" xml:space="preserve">
<style type="text/css">
	.st0{fill:#AAB2B6;}
</style>
<path class="st0" d="M85.3,71.3c-2.9-2.9-9.8-7.2-13.2-8.8c-3.9-1.9-5.4-1.9-8.2,0.2c-2.3,1.7-3.8,3.2-6.5,2.7
	c-2.7-0.6-7.9-4.6-13.1-9.7c-5.1-5.1-9.1-10.4-9.7-13.1c-0.6-2.7,1-4.2,2.7-6.5c2-2.8,2.1-4.2,0.2-8.2c-1.6-3.4-5.9-10.3-8.8-13.2
	c-2.9-2.9-3.5-2.2-5.1-1.7c0,0-2.3,0.9-4.7,2.5c-2.9,1.9-4.5,3.5-5.6,5.9c-1.1,2.4-2.4,6.9,4.2,18.6c5.3,9.4,10.5,16.6,18.2,24.3
	l0,0l0,0c7.7,7.7,14.8,12.9,24.3,18.2c11.7,6.6,16.2,5.3,18.6,4.2s4-2.7,5.9-5.6c1.5-2.3,2.5-4.7,2.5-4.7
	C87.6,74.8,88.2,74.1,85.3,71.3z"/>
</svg>
