<?xml version="1.0" encoding="utf-8"?>
<!-- Generator: Adobe Illustrator 21.0.0, SVG Export Plug-In . SVG Version: 6.00 Build 0)  -->
<svg version="1.1" id="Layer_1" xmlns="http://www.w3.org/2000/svg" xmlns:xlink="http://www.w3.org/1999/xlink" x="0px" y="0px"
	 viewBox="0 0 100 100" style="enable-background:new 0 0 100 100;" xml:space="preserve">
<style type="text/css">
	.st0{fill:#AAB2B6;}
	.st1{fill:none;}
</style>
<path class="st0" d="M11.1,55.6h16.7V38.9H11.1V55.6z M11.1,27.8h16.7V11.1H11.1V27.8z M11.1,83.3h16.7V66.7H11.1V83.3z M38.9,83.3
	h16.7V66.7H38.9V83.3z M66.7,55.6h16.7V38.9H66.7V55.6z M38.9,55.6h16.7V38.9H38.9V55.6z M66.7,83.3h16.7V66.7H66.7V83.3z
	 M66.7,11.1v16.7h16.7V11.1H66.7z M38.9,27.8h16.7V11.1H38.9V27.8z"/>
<path class="st1" d="M0,0h100v100H0V0z"/>
</svg>
