<?xml version="1.0" encoding="utf-8"?>
<!-- Generator: Adobe Illustrator 21.0.0, SVG Export Plug-In . SVG Version: 6.00 Build 0)  -->
<svg version="1.1" id="Layer_1" xmlns="http://www.w3.org/2000/svg" xmlns:xlink="http://www.w3.org/1999/xlink" x="0px" y="0px"
	 viewBox="0 0 100 100" style="enable-background:new 0 0 100 100;" xml:space="preserve">
<style type="text/css">
	.st0{fill:#AAB2B6;}
</style>
<path class="st0" d="M72.2,31.2c-10.4,0-18.8,8.4-18.8,18.7c0,4.6,1.5,8.7,4.3,11.9H42.3c2.7-3.2,4.3-7.3,4.3-11.9
	c0-10.4-8.4-18.7-18.8-18.7S9,39.6,9,50s8.4,18.8,18.8,18.8h44.4C82.6,68.7,91,60.4,91,50S82.6,31.2,72.2,31.2z M27.8,61.9
	c-6.7,0-12-5.3-12-11.9s5.3-11.9,12-11.9s12,5.3,12,11.9S34.5,61.9,27.8,61.9z M72.2,61.9c-6.7,0-12-5.3-12-11.9s5.3-11.9,12-11.9
	s12,5.3,12,11.9S78.9,61.9,72.2,61.9z"/>
</svg>
