<?xml version="1.0" encoding="utf-8"?>
<!-- Generator: Adobe Illustrator 21.0.0, SVG Export Plug-In . SVG Version: 6.00 Build 0)  -->
<svg version="1.1" id="Layer_1" xmlns="http://www.w3.org/2000/svg" xmlns:xlink="http://www.w3.org/1999/xlink" x="0px" y="0px"
	 viewBox="0 0 100 100" style="enable-background:new 0 0 100 100;" xml:space="preserve">
<style type="text/css">
	.st0{fill:#AAB2B6;}
</style>
<title>search</title>
<path class="st0" d="M88,77.2c2,2.3,2.2,4.3,0.6,6.2L84,88c-2.4,2.1-4.7,2.1-6.8,0l-19-19c-4.9,2.8-10.1,4.2-15.6,4.2
	c-8.5,0-16-3.2-22.3-9.5s-9.5-13.8-9.5-22.3s3-15.8,9-21.9s13.3-9.1,21.8-9.1s16,3.2,22.4,9.5c6.4,6.3,9.6,13.8,9.6,22.3
	c0,5.9-1.5,11.3-4.6,16.2L88,77.2L88,77.2z M20.2,41.4c0,5.9,2.3,11.1,6.8,15.6s9.7,6.8,15.6,6.8s10.9-2.1,15.1-6.3S64,48.2,64,42.2
	c0-5.9-2.3-11-6.8-15.5S47.5,20,41.6,20s-10.9,2.1-15.1,6.3S20.2,35.5,20.2,41.4C20.2,41.4,20.2,41.4,20.2,41.4z"/>
</svg>
